<?xml version="1.0" standalone="no"?>
<!DOCTYPE svg PUBLIC "-//W3C//DTD SVG 20010904//EN"
 "http://www.w3.org/TR/2001/REC-SVG-20010904/DTD/svg10.dtd">
<svg version="1.0" xmlns="http://www.w3.org/2000/svg"
 width="512.000000pt" height="466.000000pt" viewBox="0 0 512.000000 466.000000"
 preserveAspectRatio="xMidYMid meet">

<g transform="translate(0.000000,466.000000) scale(0.100000,-0.100000)"
fill="#000000" stroke="none">
<path d="M3255 4654 c-107 -21 -124 -27 -145 -49 -12 -13 -30 -52 -40 -87 -9
-35 -21 -62 -26 -61 -5 1 -16 4 -25 8 -13 5 -17 -4 -23 -52 -7 -66 -37 -123
-64 -123 -30 0 -42 -21 -42 -77 0 -110 -50 -483 -70 -522 -24 -47 -38 -130
-49 -291 -9 -126 -44 -317 -62 -335 -5 -5 -9 -22 -9 -38 0 -18 -4 -26 -11 -21
-8 5 -10 -4 -7 -30 4 -35 -5 -48 -16 -23 -3 6 -4 -3 -3 -21 3 -26 0 -32 -11
-27 -15 5 -14 -9 4 -74 6 -20 4 -23 -9 -18 -22 8 -21 -1 3 -41 23 -37 25 -46
9 -37 -6 4 -56 11 -112 16 -130 10 -199 34 -407 141 -180 92 -292 128 -455
148 -49 6 -97 13 -106 16 -9 2 -36 41 -60 87 -41 77 -108 156 -171 202 l-27
20 15 55 c17 64 10 248 -11 277 -12 16 -14 16 -39 0 -14 -10 -33 -28 -42 -42
-21 -32 -30 -32 -37 3 -8 40 -40 77 -60 69 -41 -15 -112 -174 -124 -276 l-6
-49 -58 -6 c-52 -6 -120 -34 -187 -76 -23 -15 -26 -13 -91 58 -111 121 -168
234 -197 392 -16 91 -18 251 -3 319 12 55 92 187 159 260 43 48 103 158 94
172 -3 5 -14 9 -24 9 -10 0 -22 5 -25 10 -3 6 -35 10 -70 10 -47 0 -64 4 -69
15 -3 8 -14 15 -25 15 -11 0 -25 9 -31 21 -11 19 -19 20 -130 17 -150 -4 -163
-12 -199 -120 -29 -86 -33 -92 -64 -93 -20 0 -22 -5 -22 -69 -1 -58 -4 -71
-23 -86 -12 -10 -22 -26 -22 -36 0 -9 -8 -22 -17 -29 -16 -12 -15 -21 15 -141
50 -203 96 -514 80 -549 -13 -29 5 -71 82 -184 68 -100 97 -165 132 -292 21
-78 22 -103 22 -359 0 -383 -16 -471 -115 -643 -46 -80 -54 -101 -57 -157 -4
-61 -7 -68 -53 -119 -54 -61 -59 -72 -28 -64 19 5 20 3 11 -14 -6 -11 -18 -25
-26 -32 -8 -7 -13 -18 -10 -26 3 -7 1 -16 -5 -20 -18 -10 -13 -25 7 -19 15 5
15 4 2 -8 -8 -7 -24 -24 -35 -37 l-20 -24 24 8 24 7 -22 -30 c-22 -32 -27 -47
-11 -37 5 3 3 -10 -5 -29 -17 -40 -19 -60 -6 -52 5 3 9 -6 8 -22 -2 -68 4
-123 13 -117 6 4 11 -8 12 -27 1 -18 3 -44 4 -58 1 -14 3 -34 3 -45 1 -17 3
-17 11 -5 8 12 10 9 10 -11 0 -47 12 -88 24 -83 6 2 18 -10 25 -28 13 -31 14
-32 18 -10 4 20 9 14 32 -35 25 -53 61 -98 61 -77 0 5 -7 43 -16 84 -11 52
-14 101 -10 158 6 94 35 210 47 191 8 -14 10 -7 26 86 6 36 13 51 26 53 34 7
66 -8 116 -52 29 -26 71 -51 103 -61 29 -10 107 -38 173 -62 118 -44 122 -45
215 -40 52 3 106 8 120 12 17 5 21 4 11 -3 -23 -16 6 -24 62 -17 29 4 109 20
178 36 124 28 205 37 195 21 -3 -5 22 -4 56 1 40 7 66 7 77 0 11 -6 59 -5 146
4 77 8 136 10 145 5 9 -5 46 -4 88 2 131 18 464 -20 607 -70 144 -51 213 -66
329 -74 109 -7 124 -11 192 -45 127 -65 295 -239 457 -475 95 -139 165 -266
187 -341 32 -107 88 -176 179 -223 28 -15 48 -17 120 -11 65 5 102 3 148 -9
113 -29 150 -20 253 64 37 30 114 75 178 106 144 68 227 123 324 217 82 79
124 150 133 223 2 22 7 58 11 81 6 38 4 44 -16 51 -17 6 -24 18 -26 43 -3 20
-13 42 -26 52 -24 20 -66 20 -256 -5 -45 -5 -95 -6 -110 -2 -15 5 -45 9 -67
10 -22 0 -62 6 -90 12 -28 6 -89 8 -139 5 -84 -6 -88 -5 -83 13 27 90 33 206
14 244 -11 21 -19 25 -50 22 -20 -1 -62 -12 -93 -22 -31 -11 -60 -20 -65 -20
-4 0 -19 35 -35 78 -129 362 -211 554 -287 670 -83 125 -89 147 -75 267 9 79
8 91 -12 148 -22 59 -102 210 -134 252 l-15 20 -1 -20 c-1 -22 8 -31 -96 92
-46 54 -56 77 -102 214 -73 224 -94 339 -99 548 -4 165 -5 178 -32 241 -43
100 -55 170 -55 321 -1 134 -1 136 29 185 22 35 53 65 111 104 44 30 105 73
134 95 60 44 140 147 140 179 0 31 -42 66 -79 66 -24 0 -31 4 -31 20 0 13 -7
20 -20 20 -11 0 -20 7 -20 15 0 8 -9 19 -19 25 -19 10 -114 12 -156 4z"/>
</g>
</svg>
